<svg width="800" height="400" viewBox="0 0 800 400" xmlns="http://www.w3.org/2000/svg">
  <defs>
    <linearGradient id="bgGradient2" x1="0%" y1="0%" x2="100%" y2="100%">
      <stop offset="0%" style="stop-color:#1e40af;stop-opacity:1" />
      <stop offset="50%" style="stop-color:#2563eb;stop-opacity:1" />
      <stop offset="100%" style="stop-color:#3b82f6;stop-opacity:1" />
    </linearGradient>
    <linearGradient id="transformGradient" x1="0%" y1="0%" x2="100%" y2="100%">
      <stop offset="0%" style="stop-color:#60a5fa;stop-opacity:0.9" />
      <stop offset="100%" style="stop-color:#dbeafe;stop-opacity:0.6" />
    </linearGradient>
  </defs>
  
  <!-- Background -->
  <rect width="800" height="400" fill="url(#bgGradient2)"/>
  
  <!-- Digital transformation arrow -->
  <g transform="translate(100, 200)">
    <!-- Arrow body -->
    <rect x="0" y="-15" width="500" height="30" fill="url(#transformGradient)" rx="15"/>
    <!-- Arrow head -->
    <polygon points="500,0 550,0 600,0 550,-30 550,30" fill="url(#transformGradient)"/>
    
    <!-- Digital elements along the arrow -->
    <g fill="#dbeafe" opacity="0.8">
      <rect x="50" y="-8" width="16" height="16" rx="2"/>
      <rect x="150" y="-8" width="16" height="16" rx="2"/>
      <rect x="250" y="-8" width="16" height="16" rx="2"/>
      <rect x="350" y="-8" width="16" height="16" rx="2"/>
      <rect x="450" y="-8" width="16" height="16" rx="2"/>
    </g>
  </g>
  
  <!-- Traditional business (left side) -->
  <g transform="translate(50, 100)">
    <rect x="0" y="0" width="80" height="60" fill="none" stroke="#93c5fd" stroke-width="2" opacity="0.6"/>
    <rect x="10" y="10" width="60" height="8" fill="#93c5fd" opacity="0.4"/>
    <rect x="10" y="25" width="40" height="8" fill="#93c5fd" opacity="0.4"/>
    <rect x="10" y="40" width="50" height="8" fill="#93c5fd" opacity="0.4"/>
    
    <rect x="0" y="80" width="80" height="60" fill="none" stroke="#93c5fd" stroke-width="2" opacity="0.6"/>
    <rect x="10" y="90" width="60" height="8" fill="#93c5fd" opacity="0.4"/>
    <rect x="10" y="105" width="40" height="8" fill="#93c5fd" opacity="0.4"/>
    <rect x="10" y="120" width="50" height="8" fill="#93c5fd" opacity="0.4"/>
  </g>
  
  <!-- Digital business (right side) -->
  <g transform="translate(650, 100)">
    <!-- Cloud elements -->
    <ellipse cx="40" cy="30" rx="35" ry="20" fill="#dbeafe" opacity="0.8"/>
    <ellipse cx="25" cy="25" rx="20" ry="15" fill="#dbeafe" opacity="0.8"/>
    <ellipse cx="55" cy="25" rx="20" ry="15" fill="#dbeafe" opacity="0.8"/>
    
    <!-- Connected devices -->
    <rect x="10" y="80" width="20" height="30" fill="#60a5fa" opacity="0.8" rx="3"/>
    <rect x="35" y="85" width="15" height="20" fill="#60a5fa" opacity="0.8" rx="2"/>
    <rect x="55" y="80" width="20" height="30" fill="#60a5fa" opacity="0.8" rx="3"/>
    
    <!-- Connection lines -->
    <g stroke="#93c5fd" stroke-width="1" opacity="0.6">
      <line x1="20" y1="50" x2="20" y2="80"/>
      <line x1="42" y1="50" x2="42" y2="85"/>
      <line x1="65" y1="50" x2="65" y2="80"/>
    </g>
  </g>
  
  <!-- Data streams -->
  <g stroke="#93c5fd" stroke-width="2" fill="none" opacity="0.5">
    <path d="M200 150 Q300 120 400 150 Q500 180 600 150">
      <animate attributeName="stroke-dasharray" values="0,20;20,0" dur="2s" repeatCount="indefinite"/>
    </path>
    <path d="M200 250 Q300 280 400 250 Q500 220 600 250">
      <animate attributeName="stroke-dasharray" values="0,20;20,0" dur="2s" repeatCount="indefinite"/>
    </path>
  </g>
  
  <!-- Tech icons -->
  <g fill="#dbeafe" opacity="0.7">
    <!-- Gear/cog -->
    <g transform="translate(400, 80)">
      <circle cx="0" cy="0" r="15" fill="none" stroke="#dbeafe" stroke-width="3"/>
      <circle cx="0" cy="0" r="6" fill="#dbeafe"/>
      <rect x="-2" y="-20" width="4" height="8" fill="#dbeafe"/>
      <rect x="-2" y="12" width="4" height="8" fill="#dbeafe"/>
      <rect x="-20" y="-2" width="8" height="4" fill="#dbeafe"/>
      <rect x="12" y="-2" width="8" height="4" fill="#dbeafe"/>
    </g>
    
    <!-- Network nodes -->
    <g transform="translate(400, 320)">
      <circle cx="0" cy="0" r="8" fill="#60a5fa"/>
      <circle cx="-25" cy="-15" r="5" fill="#93c5fd"/>
      <circle cx="25" cy="-15" r="5" fill="#93c5fd"/>
      <circle cx="-25" cy="15" r="5" fill="#93c5fd"/>
      <circle cx="25" cy="15" r="5" fill="#93c5fd"/>
      <line x1="0" y1="0" x2="-25" y2="-15" stroke="#93c5fd" stroke-width="1"/>
      <line x1="0" y1="0" x2="25" y2="-15" stroke="#93c5fd" stroke-width="1"/>
      <line x1="0" y1="0" x2="-25" y2="15" stroke="#93c5fd" stroke-width="1"/>
      <line x1="0" y1="0" x2="25" y2="15" stroke="#93c5fd" stroke-width="1"/>
    </g>
  </g>
  
  <!-- Floating geometric elements -->
  <g stroke="#93c5fd" stroke-width="1" fill="none" opacity="0.4">
    <polygon points="100,50 120,60 110,80 90,70" transform="rotate(15 105 65)"/>
    <polygon points="700,350 720,360 710,380 690,370" transform="rotate(-15 705 365)"/>
    <rect x="750" y="100" width="20" height="20" transform="rotate(30 760 110)"/>
  </g>
</svg>