<svg width="800" height="400" viewBox="0 0 800 400" xmlns="http://www.w3.org/2000/svg">
  <defs>
    <linearGradient id="bgGradient" x1="0%" y1="0%" x2="100%" y2="100%">
      <stop offset="0%" style="stop-color:#1e3a8a;stop-opacity:1" />
      <stop offset="50%" style="stop-color:#3b82f6;stop-opacity:1" />
      <stop offset="100%" style="stop-color:#60a5fa;stop-opacity:1" />
    </linearGradient>
    <linearGradient id="circuitGradient" x1="0%" y1="0%" x2="100%" y2="100%">
      <stop offset="0%" style="stop-color:#93c5fd;stop-opacity:0.8" />
      <stop offset="100%" style="stop-color:#dbeafe;stop-opacity:0.4" />
    </linearGradient>
  </defs>
  
  <!-- Background -->
  <rect width="800" height="400" fill="url(#bgGradient)"/>
  
  <!-- Circuit board pattern -->
  <g stroke="url(#circuitGradient)" stroke-width="2" fill="none" opacity="0.6">
    <path d="M100 100 L200 100 L200 150 L300 150 L300 200 L400 200"/>
    <path d="M150 50 L150 100 L250 100 L250 180 L350 180"/>
    <path d="M500 80 L600 80 L600 130 L700 130 L700 180"/>
    <path d="M450 200 L550 200 L550 250 L650 250 L650 300"/>
    <circle cx="200" cy="100" r="4" fill="#93c5fd"/>
    <circle cx="300" cy="150" r="4" fill="#93c5fd"/>
    <circle cx="400" cy="200" r="4" fill="#93c5fd"/>
    <circle cx="600" cy="80" r="4" fill="#93c5fd"/>
    <circle cx="550" cy="200" r="4" fill="#93c5fd"/>
  </g>
  
  <!-- AI Brain/Network visualization -->
  <g transform="translate(400, 200)">
    <!-- Central node -->
    <circle cx="0" cy="0" r="30" fill="#dbeafe" opacity="0.9"/>
    <circle cx="0" cy="0" r="20" fill="#3b82f6" opacity="0.8"/>
    
    <!-- Connected nodes -->
    <g stroke="#93c5fd" stroke-width="2" opacity="0.7">
      <line x1="0" y1="0" x2="-80" y2="-60"/>
      <line x1="0" y1="0" x2="80" y2="-60"/>
      <line x1="0" y1="0" x2="-80" y2="60"/>
      <line x1="0" y1="0" x2="80" y2="60"/>
      <line x1="0" y1="0" x2="-100" y2="0"/>
      <line x1="0" y1="0" x2="100" y2="0"/>
    </g>
    
    <circle cx="-80" cy="-60" r="15" fill="#60a5fa" opacity="0.8"/>
    <circle cx="80" cy="-60" r="15" fill="#60a5fa" opacity="0.8"/>
    <circle cx="-80" cy="60" r="15" fill="#60a5fa" opacity="0.8"/>
    <circle cx="80" cy="60" r="15" fill="#60a5fa" opacity="0.8"/>
    <circle cx="-100" cy="0" r="15" fill="#60a5fa" opacity="0.8"/>
    <circle cx="100" cy="0" r="15" fill="#60a5fa" opacity="0.8"/>
  </g>
  
  <!-- Data flow arrows -->
  <g fill="#dbeafe" opacity="0.8">
    <polygon points="150,320 170,310 170,315 200,315 200,325 170,325 170,330"/>
    <polygon points="250,320 270,310 270,315 300,315 300,325 270,325 270,330"/>
    <polygon points="500,320 520,310 520,315 550,315 550,325 520,325 520,330"/>
  </g>
  
  <!-- Geometric tech elements -->
  <g stroke="#93c5fd" stroke-width="1" fill="none" opacity="0.5">
    <rect x="50" y="50" width="40" height="40" transform="rotate(45 70 70)"/>
    <rect x="650" y="300" width="30" height="30" transform="rotate(45 665 315)"/>
    <polygon points="700,50 720,70 700,90 680,70"/>
  </g>
  
  <!-- Floating particles -->
  <g fill="#dbeafe" opacity="0.6">
    <circle cx="120" cy="180" r="2"/>
    <circle cx="680" cy="120" r="2"/>
    <circle cx="750" cy="250" r="2"/>
    <circle cx="80" cy="300" r="2"/>
    <circle cx="600" cy="350" r="2"/>
  </g>
</svg>